<svg id="Layer_1" data-name="Layer 1" xmlns="http://www.w3.org/2000/svg" viewBox="0 0 1000 1000">
  <rect width="1000" height="1000" style="fill: #3f51b5"/>
  <g style="opacity: 0.97">
    <path d="M312.71,302,190.8,597.69,69.71,302H166l25.61,87.28L219.89,302Z" style="fill: #fff"/>
    <path d="M333.73,407q59.41,0,101.93,43.23t42.51,103.47q0,61.27-42.82,104.09T331.27,700.56q-60.86,0-103.88-43t-43-103.88q0-61.47,43.34-104.08T333.73,407Zm-2.46,82.37q-25.62,0-43.64,18.85t-18,45.48q0,26.64,18.13,45.49T331.27,618q25.82,0,43.74-18.75t17.93-45.59q0-26.83-17.93-45.58T331.27,489.32Z" style="fill: #fff"/>
    <path d="M691.91,564.62,779,566.88q-8.6,67.61-46.81,104.49t-99.68,36.88q-62.49,0-104.6-41.9t-42.1-104q0-62.49,42.92-105.11t105.83-42.61q61.88,0,103.26,41.79,28.68,28.89,40.57,80.52l-89.13,5.95q-15-45.9-56.75-45.9-26.64,0-44,18.44t-17.31,46.92q0,27.46,17,45.38t43,17.93q26.43,0,42.1-15.78T691.91,564.62Z" style="fill: #fff"/>
    <path d="M804.06,403.21V477H778.59v66.59H690.23V365.71q0-51.63,29.93-80.21t84.12-28.58q52.23,0,77.26,25.92t25,80V543.56H818.21V368.38q0-16.39-4.14-22.74t-14.8-6.36q-20.68,0-20.68,29.1v34.83Z" style="fill: #fff"/>
    <circle cx="331.5" cy="555" r="25" style="fill: #ff5722"/>
    <circle cx="635.5" cy="564" r="25" style="fill: #ff5722"/>
  </g>
</svg>
