<svg id="Layer_1" data-name="Layer 1" xmlns="http://www.w3.org/2000/svg" viewBox="0 0 836.83 451.33">
  <g style="opacity: 0.9700000286102295">
    <path d="M243,45.08,121.09,340.77,0,45.08H96.29l25.61,87.28,28.28-87.28Z" style="fill: #3f51b5"/>
    <path d="M264,150.08q59.42,0,101.93,43.23t42.51,103.47q0,61.28-42.82,104.09T261.56,443.64q-60.85,0-103.88-43t-43-103.88q0-61.47,43.34-104.08T264,150.08Zm-2.46,82.37q-25.62,0-43.64,18.85t-18,45.48q0,26.64,18.13,45.49t43.51,18.81q25.82,0,43.74-18.75t17.93-45.59q0-26.83-17.93-45.58T261.56,232.4Z" style="fill: #3f51b5"/>
    <path d="M622.2,307.7,709.29,310q-8.6,67.6-46.81,104.49T562.8,451.33q-62.49,0-104.6-41.9t-42.1-104q0-62.49,42.92-105.11t105.83-42.61q61.88,0,103.26,41.79,28.68,28.89,40.57,80.52l-89.13,6q-15-45.9-56.75-45.9-26.64,0-44,18.44t-17.31,46.92q0,27.46,17,45.38t43,17.93q26.43,0,42.1-15.78T622.2,307.7Z" style="fill: #3f51b5"/>
    <path d="M734.35,146.29v73.79H708.88v66.59H620.52V108.79q0-51.63,29.93-80.21T734.57,0q52.23,0,77.26,25.92t25,80V286.64H748.5V111.46q0-16.39-4.14-22.74t-14.8-6.36q-20.68,0-20.68,29.1v34.83Z" style="fill: #3f51b5"/>
    <circle cx="261.79" cy="298.08" r="25" style="fill: #ff5722"/>
    <circle cx="565.79" cy="307.08" r="25" style="fill: #ff5722"/>
  </g>
</svg>
