<?xml version="1.0" encoding="utf-8"?>
<svg width="48px" height="48px" viewBox="0 0 48 48" version="1.1" xmlns:xlink="http://www.w3.org/1999/xlink" xmlns="http://www.w3.org/2000/svg">
  <defs>
    <path d="M48 0L48 0L48 48L0 48L0 0L48 0Z" id="path_1" />
    <clipPath id="clip_1">
      <use xlink:href="#path_1" clip-rule="evenodd" fill-rule="evenodd" />
    </clipPath>
  </defs>
  <g id="Ok">
    <path d="M48 0L48 0L48 48L0 48L0 0L48 0Z" id="Ok" fill="none" stroke="none" />
    <path d="M24 4C12.9721 4 4 12.9721 4 24C4 35.0279 12.9721 44 24 44C35.0279 44 44 35.0279 44 24C44 12.9721 35.0279 4 24 4L24 4ZM24 7C33.4066 7 41 14.5934 41 24C41 33.4066 33.4066 41 24 41C14.5934 41 7 33.4066 7 24C7 14.5934 14.5934 7 24 7L24 7ZM31.4707 17.9863C31.0811 17.9977 30.7113 18.1602 30.4395 18.4395L21.5 27.3789L17.5605 23.4395C17.1843 23.0476 16.6256 22.8898 16.1 23.0268C15.5743 23.1638 15.1638 23.5743 15.0268 24.1C14.8898 24.6256 15.0476 25.1843 15.4395 25.5605L20.4395 30.5605C21.0252 31.1461 21.9748 31.1461 22.5605 30.5605L32.5605 20.5605C33.0034 20.1292 33.1364 19.4703 32.8953 18.901C32.6543 18.3317 32.0887 17.9685 31.4707 17.9863L31.4707 17.9863Z" id="Shape" fill="#FFFFFF" fill-rule="evenodd" stroke="none" clip-path="url(#clip_1)" />
  </g>
</svg>