<?xml version="1.0" encoding="utf-8"?>
<svg width="48px" height="48px" viewBox="0 0 48 48" version="1.1" xmlns:xlink="http://www.w3.org/1999/xlink" xmlns="http://www.w3.org/2000/svg">
  <defs>
    <path d="M48 0L48 0L48 48L0 48L0 0L48 0Z" id="path_1" />
    <clipPath id="clip_1">
      <use xlink:href="#path_1" clip-rule="evenodd" fill-rule="evenodd" />
    </clipPath>
  </defs>
  <g id="Check All">
    <path d="M48 0L48 0L48 48L0 48L0 0L48 0Z" id="Check-All" fill="none" stroke="none" />
    <path d="M8.5 4C6.0325 4 4 6.0325 4 8.5L4 34.5C4 36.9675 6.0325 39 8.5 39L34.5 39C36.9675 39 39 36.9675 39 34.5L39 8.5C39 6.0325 36.9675 4 34.5 4L8.5 4L8.5 4ZM8.5 7L34.5 7C35.3465 7 36 7.6535 36 8.5L36 34.5C36 35.3465 35.3465 36 34.5 36L8.5 36C7.6535 36 7 35.3465 7 34.5L7 8.5C7 7.6535 7.6535 7 8.5 7L8.5 7ZM41 9.27539L41 35.5C41 38.532 38.533 41 35.5 41L9.27539 41C9.89639 42.742 11.547 44 13.5 44L35.5 44C40.187 44 44 40.187 44 35.5L44 13.5C44 11.547 42.742 9.89739 41 9.27539L41 9.27539ZM28.4707 14.9863C28.0811 14.9977 27.7113 15.1602 27.4395 15.4395L19.5 23.3789L16.5605 20.4395C16.1843 20.0476 15.6256 19.8898 15.1 20.0268C14.5743 20.1638 14.1638 20.5743 14.0268 21.1C13.8898 21.6257 14.0476 22.1843 14.4395 22.5605L18.4395 26.5605C19.0252 27.1461 19.9748 27.1461 20.5605 26.5605L29.5605 17.5605C30.0034 17.1292 30.1364 16.4703 29.8953 15.901C29.6543 15.3317 29.0887 14.9685 28.4707 14.9863L28.4707 14.9863Z" id="Shape" fill="#FFFFFF" fill-rule="evenodd" stroke="none" clip-path="url(#clip_1)" />
  </g>
</svg>