<?xml version="1.0" encoding="utf-8"?>
<svg width="48px" height="48px" viewBox="0 0 48 48" version="1.1" xmlns:xlink="http://www.w3.org/1999/xlink" xmlns="http://www.w3.org/2000/svg">
  <defs>
    <path d="M0 0L48 0L48 48L0 48L0 0Z" id="path_1" />
    <clipPath id="clip_1">
      <use xlink:href="#path_1" />
    </clipPath>
  </defs>
  <g id="Bookmark" clip-path="url(#clip_1)">
    <path d="M0 0L48 0L48 48L0 48L0 0Z" id="Bookmark" fill="none" fill-rule="evenodd" stroke="none" />
    <path d="M43 8L24 8L24 40L43 40C44.105 40 45 39.105 45 38L45 10C45 8.895 44.105 8 43 8L43 8Z" id="Shape" fill="#0078D4" stroke="none" />
    <path d="M24 8L5 8C3.895 8 3 8.895 3 10L3 38C3 39.105 3.895 40 5 40L24 40L24 8L24 8Z" id="Shape" fill="#1B9DE2" stroke="none" />
    <path d="M21 38C21 39.657 22.343 41 24 41L24 35C22.343 35 21 36.343 21 38L21 38Z" id="Shape" fill="#1B9DE2" stroke="none" />
    <path d="M27 38C27 36.343 25.657 35 24 35L24 41C25.657 41 27 39.657 27 38L27 38Z" id="Shape" fill="#0078D4" stroke="none" />
    <path d="M24 8L6 8C5.448 8 5 8.448 5 9L5 37C5 37.552 5.448 38 6 38L24 38L24 8L24 8Z" id="Shape" fill="#FFFFFF" stroke="none" />
    <path d="M42 8L24 8L24 38L42 38C42.552 38 43 37.552 43 37L43 9C43 8.448 42.552 8 42 8L42 8Z" id="Shape" fill="#F0F0F0" stroke="none" />
    <path d="M30 8L30 23.6C30 24.4 30.6 25 31.4 25C31.6 25 31.9 24.9 32.1 24.8L35 23L37.9 24.8C38.1 24.9 38.3 25 38.6 25C39 25 39.3 24.9 39.6 24.6C39.8 24.3 40 24 40 23.6L40 8L30 8L30 8Z" id="Shape" fill="#000000" fill-opacity="0.05" stroke="none" />
    <path d="M30.5 8L30.5 23.5C30.5 24 30.9 24.4 31.4 24.4C31.6 24.4 31.8 24.4 31.9 24.3L35 22.4L38.1 24.4C38.3 24.5 38.4 24.5 38.6 24.5C38.8 24.5 39.1 24.4 39.2 24.1C39.4 24 39.5 23.7 39.5 23.5L39.5 8L30.5 8L30.5 8Z" id="Shape" fill="#000000" fill-opacity="0.07" stroke="none" />
    <path d="M39 8L31 8L31 23.6C31 23.9 31.3 24.1 31.6 23.9L35 21.8L38.4 23.9C38.7 24.1 39 23.9 39 23.6L39 8L39 8Z" id="Shape" fill="#CF1928" stroke="none" />
  </g>
</svg>