<?xml version="1.0" encoding="utf-8"?>
<svg width="48px" height="48px" viewBox="0 0 48 48" version="1.1" xmlns:xlink="http://www.w3.org/1999/xlink" xmlns="http://www.w3.org/2000/svg">
  <defs>
    <path d="M48 0L48 0L48 48L0 48L0 0L48 0Z" id="path_1" />
    <clipPath id="clip_1">
      <use xlink:href="#path_1" clip-rule="evenodd" fill-rule="evenodd" />
    </clipPath>
  </defs>
  <g id="Trash Can">
    <path d="M48 0L48 0L48 48L0 48L0 0L48 0Z" id="Trash-Can" fill="none" stroke="none" />
    <path d="M24 4C20.7041 4 18 6.70413 18 10L11.7461 10C11.6571 9.98474 11.5669 9.97755 11.4766 9.97852C11.4039 9.98041 11.3314 9.98759 11.2598 10L7.5 10C6.95905 9.99235 6.45588 10.2766 6.18317 10.7438C5.91046 11.2111 5.91046 11.7889 6.18317 12.2562C6.45588 12.7234 6.95905 13.0077 7.5 13L10 13L10 38.5C10 41.5198 12.4802 44 15.5 44L32.5 44C35.5198 44 38 41.5198 38 38.5L38 13L40.5 13C41.041 13.0076 41.5441 12.7234 41.8168 12.2562C42.0895 11.7889 42.0895 11.2111 41.8168 10.7438C41.5441 10.2766 41.041 9.99235 40.5 10L36.7461 10C36.5851 9.97355 36.4208 9.97355 36.2598 10L30 10C30 6.70413 27.2959 4 24 4L24 4ZM24 7C25.6741 7 27 8.32586 27 10L21 10C21 8.32586 22.3259 7 24 7L24 7ZM13 13L35 13L35 38.5C35 39.8982 33.8982 41 32.5 41L15.5 41C14.1018 41 13 39.8982 13 38.5L13 13L13 13ZM20.4766 17.9785C19.6489 17.9914 18.9881 18.6723 19 19.5L19 34.5C18.9924 35.041 19.2766 35.5441 19.7438 35.8168C20.2111 36.0895 20.7889 36.0895 21.2562 35.8168C21.7234 35.5441 22.0076 35.041 22 34.5L22 19.5C22.0058 19.0944 21.8471 18.7037 21.5601 18.417C21.2731 18.1304 20.8822 17.9722 20.4766 17.9785L20.4766 17.9785ZM27.4766 17.9785C26.6489 17.9914 25.9881 18.6723 26 19.5L26 34.5C25.9924 35.041 26.2766 35.5441 26.7438 35.8168C27.2111 36.0895 27.7889 36.0895 28.2562 35.8168C28.7234 35.5441 29.0076 35.041 29 34.5L29 19.5C29.0058 19.0944 28.8471 18.7037 28.5601 18.417C28.2731 18.1304 27.8822 17.9722 27.4766 17.9785L27.4766 17.9785Z" id="Shape" fill="#FFFFFF" fill-rule="evenodd" stroke="none" clip-path="url(#clip_1)" />
  </g>
</svg>